<?xml version="1.0" encoding="UTF-8"?>
<svg width="1194px" height="655px" viewBox="0 0 1194 655" version="1.1" xmlns="http://www.w3.org/2000/svg" xmlns:xlink="http://www.w3.org/1999/xlink">
    <title>map@svg</title>
    <g id="Festihealth" stroke="none" stroke-width="1" fill="none" fill-rule="evenodd">
        <g id="FestiHealth" transform="translate(-127.000000, -1498.000000)">
            <g id="Group-14" transform="translate(127.000000, 1499.000000)">
                <g id="map">
                    <g id="building" transform="translate(363.000000, 0.000000)" fill="#FFFFFF">
                        <rect id="Rectangle" stroke="#7B7B7B" stroke-width="2" x="0" y="0" width="443" height="653" rx="5"></rect>
                        <rect id="Rectangle" stroke="#7B7B7B" stroke-width="2" x="8" y="7" width="427" height="638" rx="5"></rect>
                        <g id="Group-7" transform="translate(109.000000, 122.000000)" stroke="#CCCCCC" stroke-dasharray="3">
                            <path d="M0,0 L21,0 L21,23 L0,23 L0,0 Z" id="Rectangle"></path>
                            <line x1="3" y1="16" x2="18" y2="16" id="Path-11"></line>
                        </g>
                        <g id="Group-7" transform="translate(140.000000, 122.000000)" stroke="#CCCCCC" stroke-dasharray="3">
                            <path d="M0,0 L21,0 L21,23 L0,23 L0,0 Z" id="Rectangle"></path>
                            <line x1="3" y1="16" x2="18" y2="16" id="Path-11"></line>
                        </g>
                        <g id="Group-7" transform="translate(169.000000, 122.000000)" stroke="#CCCCCC" stroke-dasharray="3">
                            <path d="M0,0 L21,0 L21,23 L0,23 L0,0 Z" id="Rectangle"></path>
                            <line x1="3" y1="16" x2="18" y2="16" id="Path-11"></line>
                        </g>
                        <g id="Group-7" transform="translate(198.000000, 122.000000)" stroke="#CCCCCC" stroke-dasharray="3">
                            <path d="M0,0 L21,0 L21,23 L0,23 L0,0 Z" id="Rectangle"></path>
                            <line x1="3" y1="16" x2="18" y2="16" id="Path-11"></line>
                        </g>
                        <g id="Group-7" transform="translate(227.000000, 122.000000)" stroke="#CCCCCC" stroke-dasharray="3">
                            <path d="M0,0 L21,0 L21,23 L0,23 L0,0 Z" id="Rectangle"></path>
                            <line x1="3" y1="16" x2="18" y2="16" id="Path-11"></line>
                        </g>
                        <g id="Group-7" transform="translate(256.000000, 122.000000)" stroke="#CCCCCC" stroke-dasharray="3">
                            <path d="M0,0 L21,0 L21,23 L0,23 L0,0 Z" id="Rectangle"></path>
                            <line x1="3" y1="16" x2="18" y2="16" id="Path-11"></line>
                        </g>
                        <g id="Group-7" transform="translate(285.000000, 122.000000)" stroke="#CCCCCC" stroke-dasharray="3">
                            <path d="M0,0 L21,0 L21,23 L0,23 L0,0 Z" id="Rectangle"></path>
                            <line x1="3" y1="16" x2="18" y2="16" id="Path-11"></line>
                        </g>
                        <g id="Group-7" transform="translate(314.000000, 122.000000)" stroke="#CCCCCC" stroke-dasharray="3">
                            <path d="M0,0 L21,0 L21,23 L0,23 L0,0 Z" id="Rectangle"></path>
                            <line x1="3" y1="16" x2="18" y2="16" id="Path-11"></line>
                        </g>
                    </g>
                    <g id="Group-2" transform="translate(674.000000, 432.000000)" fill="#FFFFFF" stroke="#CCCCCC" stroke-dasharray="2">
                        <path d="M94,0 L105,0 C111.666667,0.666666667 115,4.33333333 115,11 C115,17.6666667 111.666667,21.3333333 105,22 L94,22 L94,0 Z" id="Rectangle"></path>
                        <path d="M0,0 L11,0 C17.6666667,0.666666667 21,4.33333333 21,11 C21,17.6666667 17.6666667,21.3333333 11,22 L0,22 L0,0 Z" id="Rectangle" transform="translate(10.500000, 11.000000) scale(-1, 1) translate(-10.500000, -11.000000) "></path>
                        <path d="M11,63 C17.0751322,63 22,58.0751322 22,52 C22,45.9248678 17.0751322,41 11,41 C4.92486775,41 0,45.9248678 0,52 C0,58.0751322 4.92486775,63 11,63 Z" id="Oval"></path>
                        <path d="M51,39 L115,39 L115,66 L51,66 L51,39 Z" id="Rectangle"></path>
                    </g>
                    <g id="Rectangle-2" transform="translate(430.000000, 165.000000)" fill="#FFFFFF" stroke="#CCCCCC" stroke-dasharray="3">
                        <path d="M0,0 L26,0 L26,26 L0,26 L0,0 Z" id="Rectangle"></path>
                        <path d="M31,0 L57,0 L57,26 L31,26 L31,0 Z" id="Rectangle"></path>
                        <path d="M62,0 L88,0 L88,26 L62,26 L62,0 Z" id="Rectangle"></path>
                        <path d="M93,0 L119,0 L119,26 L93,26 L93,0 Z" id="Rectangle"></path>
                        <path d="M124,0 L150,0 L150,26 L124,26 L124,0 Z" id="Rectangle"></path>
                        <path d="M155,0 L181,0 L181,26 L155,26 L155,0 Z" id="Rectangle"></path>
                        <path d="M187,0 L213,0 L213,26 L187,26 L187,0 Z" id="Rectangle"></path>
                        <path d="M218,0 L244,0 L244,26 L218,26 L218,0 Z" id="Rectangle"></path>
                        <path d="M249,0 L275,0 L275,26 L249,26 L249,0 Z" id="Rectangle"></path>
                        <path d="M280,0 L306,0 L306,26 L280,26 L280,0 Z" id="Rectangle"></path>
                    </g>
                    <g id="Rectangle-2" transform="translate(430.000000, 228.000000)" fill="#FFFFFF" stroke="#CCCCCC" stroke-dasharray="3">
                        <path d="M0,0 L26,0 L26,26 L0,26 L0,0 Z" id="Rectangle"></path>
                        <path d="M31,0 L57,0 L57,26 L31,26 L31,0 Z" id="Rectangle"></path>
                        <path d="M62,0 L88,0 L88,26 L62,26 L62,0 Z" id="Rectangle"></path>
                        <path d="M93,0 L119,0 L119,26 L93,26 L93,0 Z" id="Rectangle"></path>
                        <path d="M124,0 L150,0 L150,26 L124,26 L124,0 Z" id="Rectangle"></path>
                        <path d="M155,0 L181,0 L181,26 L155,26 L155,0 Z" id="Rectangle"></path>
                        <path d="M186,0 L212,0 L212,26 L186,26 L186,0 Z" id="Rectangle"></path>
                        <path d="M217,0 L243,0 L243,26 L217,26 L217,0 Z" id="Rectangle"></path>
                        <path d="M248,0 L274,0 L274,26 L248,26 L248,0 Z" id="Rectangle"></path>
                        <path d="M279,0 L305,0 L305,26 L279,26 L279,0 Z" id="Rectangle"></path>
                    </g>
                    <path d="M467,22 L703,22 L703,84 C649.666667,94 609.666667,99 583,99 C556.333333,99 517.666667,94 467,84 L467,22 Z" id="Rectangle" stroke="#CCCCCC" fill="#FFFFFF"></path>
                    <g id="room" transform="translate(371.000000, 407.000000)" fill="#FFFFFF" stroke="#7B7B7B" stroke-width="2">
                        <polyline id="Path" points="145 72 145 105 0 105 0 0 145 0 145 39"></polyline>
                        <polyline id="Path" points="138 73 138 99 0 99 0 7 138 7 138 39"></polyline>
                    </g>
                    <g id="room" transform="translate(371.000000, 302.000000)" fill="#FFFFFF" stroke="#7B7B7B" stroke-width="2">
                        <g id="Path">
                            <polyline points="145 68 145 105 0 105 0 0 145 0 145 37"></polyline>
                            <polyline points="138 68 138 99 0 99 0 5 138 5 138 38"></polyline>
                        </g>
                    </g>
                    <g id="room" transform="translate(725.500000, 459.500000) scale(-1, 1) translate(-725.500000, -459.500000) translate(653.000000, 407.000000)" fill="#FFFFFF" stroke="#7B7B7B" stroke-width="2">
                        <polyline id="Path" points="145 69 145 105 0 105 0 0 145 0 145 33"></polyline>
                        <polyline id="Path" points="138 70 138 99 0 99 0 7 138 7 138 32"></polyline>
                    </g>
                    <g id="room" transform="translate(725.500000, 354.500000) scale(-1, 1) translate(-725.500000, -354.500000) translate(653.000000, 302.000000)" fill="#FFFFFF" stroke="#7B7B7B" stroke-width="2">
                        <g id="Path">
                            <polyline points="145 71 145 105 0 105 0 0 145 0 145 40"></polyline>
                            <polyline points="138 72 138 99 0 99 0 5 138 5 138 39"></polyline>
                        </g>
                    </g>
                    <rect id="Rectangle" stroke="#CCCCCC" fill="#FFFFFF" x="684" y="318" width="95" height="22"></rect>
                    <g id="Group-3" transform="translate(684.000000, 318.000000)" fill="#FFFFFF" stroke="#CCCCCC" stroke-dasharray="2">
                        <path d="M0,0 L95,0 L95,22 L0,22 L0,0 Z" id="Rectangle"></path>
                    </g>
                    <g id="Group-3" transform="translate(394.000000, 466.000000)" fill="#FFFFFF" stroke="#CCCCCC" stroke-dasharray="2">
                        <path d="M74,0 L85,0 C91.6666667,0.666666667 95,4.33333333 95,11 C95,17.6666667 91.6666667,21.3333333 85,22 L74,22 L74,0 Z" id="Rectangle"></path>
                        <path d="M0,0 L11,0 C17.6666667,0.666666667 21,4.33333333 21,11 C21,17.6666667 17.6666667,21.3333333 11,22 L0,22 L0,0 Z" id="Rectangle" transform="translate(10.500000, 11.000000) scale(-1, 1) translate(-10.500000, -11.000000) "></path>
                        <path d="M48,23 C54.0751322,23 59,18.0751322 59,12 C59,5.92486775 54.0751322,1 48,1 C41.9248678,1 37,5.92486775 37,12 C37,18.0751322 41.9248678,23 48,23 Z" id="Oval"></path>
                    </g>
                    <rect id="Rectangle" stroke="#CCCCCC" fill="#FFFFFF" x="509" y="581" width="157" height="64"></rect>
                    <path d="M402,546 L428,546 L428,572 L402,572 L402,546 Z" id="Rectangle" stroke="#CCCCCC" fill="#FFFFFF" stroke-dasharray="3"></path>
                    <path d="M441,546 L467,546 L467,572 L441,572 L441,546 Z" id="Rectangle" stroke="#CCCCCC" fill="#FFFFFF" stroke-dasharray="3"></path>
                    <path d="M402,581 L428,581 L428,607 L402,607 L402,581 Z" id="Rectangle" stroke="#CCCCCC" fill="#FFFFFF" stroke-dasharray="3"></path>
                    <path d="M441,581 L467,581 L467,607 L441,607 L441,581 Z" id="Rectangle" stroke="#CCCCCC" fill="#FFFFFF" stroke-dasharray="3"></path>
                    <path d="M703,578 L774,578 L774,626 L703,626 L703,578 Z" id="Rectangle" stroke="#CCCCCC" fill="#FFFFFF" stroke-dasharray="3"></path>
                    <g id="Group-2" transform="translate(437.000000, 320.000000)" fill="#FFFFFF" stroke="#CCCCCC" stroke-dasharray="2">
                        <path d="M34,0 L45,0 C51.6666667,0.666666667 55,4.33333333 55,11 C55,17.6666667 51.6666667,21.3333333 45,22 L34,22 L34,0 Z" id="Rectangle"></path>
                        <path d="M320,38 L331,38 C337.666667,38.6666667 341,42.3333333 341,49 C341,55.6666667 337.666667,59.3333333 331,60 L320,60 L320,38 Z" id="Rectangle"></path>
                        <path d="M0,0 L11,0 C17.6666667,0.666666667 21,4.33333333 21,11 C21,17.6666667 17.6666667,21.3333333 11,22 L0,22 L0,0 Z" id="Rectangle" transform="translate(10.500000, 11.000000) scale(-1, 1) translate(-10.500000, -11.000000) "></path>
                    </g>
                    <text id="Stage" font-family="Lato-Regular, Lato" font-size="18" font-weight="normal" line-spacing="40" fill="#000000">
                        <tspan x="560.495" y="54">Stage</tspan>
                    </text>
                    <text id="Juice-bar" font-family="Lato-Regular, Lato" font-size="16" font-weight="normal" line-spacing="40" fill="#000000">
                        <tspan x="563.228" y="610">Juice bar</tspan>
                    </text>
                    <text id="Music" font-family="Lato-Regular, Lato" font-size="16" font-weight="normal" line-spacing="40" fill="#000000">
                        <tspan x="718.436" y="598">Music</tspan>
                    </text>
                    <text id="Booths" font-family="Lato-Regular, Lato" font-size="16" font-weight="normal" line-spacing="40" fill="#000000">
                        <tspan x="545.024" y="206">Booths</tspan>
                    </text>
                    <text id="Yoga" font-family="Lato-Regular, Lato" font-size="16" font-weight="normal" line-spacing="22" fill="#000000">
                        <tspan x="415.016" y="376">Yoga</tspan>
                    </text>
                    <text id="Meditation" font-family="Lato-Regular, Lato" font-size="16" font-weight="normal" line-spacing="22" fill="#000000">
                        <tspan x="415.46" y="446">Meditation</tspan>
                    </text>
                    <text id="Cooking" font-family="Lato-Regular, Lato" font-size="16" font-weight="normal" line-spacing="22" fill="#000000">
                        <tspan x="702.348" y="468">Cooking</tspan>
                    </text>
                    <text id="Exercise" font-family="Lato-Regular, Lato" font-size="16" font-weight="normal" line-spacing="22" fill="#000000">
                        <tspan x="674.196" y="376">Exercise</tspan>
                    </text>
                    <g id="Group-10" fill="#000000">
                        <g id="Group-2">
                            <text id="Learn" font-family="Lato-Bold, Lato" font-size="32" font-weight="bold">
                                <tspan x="0" y="32">Learn</tspan>
                            </text>
                            <text id="Virtual-central-stag" font-family="Lato-Regular, Lato" font-size="16" font-weight="normal" line-spacing="28">
                                <tspan x="0" y="79">Virtual central stage with </tspan>
                                <tspan x="0" y="107">educational and inspiring talks from </tspan>
                                <tspan x="0" y="135">virtual health experts and artists.</tspan>
                            </text>
                        </g>
                    </g>
                    <g id="Group-8-Copy" transform="translate(0.000000, 507.000000)" fill="#000000">
                        <g id="Group-6">
                            <text id="Make-Friends" font-family="Lato-Bold, Lato" font-size="32" font-weight="bold">
                                <tspan x="0" y="32">Make Friends</tspan>
                            </text>
                            <text id="Meet-like-minded-peo" font-family="Lato-Regular, Lato" font-size="16" font-weight="normal" line-spacing="28">
                                <tspan x="0" y="79">Meet like-minded people, create lasting </tspan>
                                <tspan x="0" y="107">friendships and team up for activities </tspan>
                                <tspan x="0" y="135">while listening to great music </tspan>
                            </text>
                        </g>
                    </g>
                    <g id="Group-11" transform="translate(0.000000, 253.000000)" fill="#000000">
                        <g id="Group-3">
                            <text id="Experience" font-family="Lato-Bold, Lato" font-size="32" font-weight="bold">
                                <tspan x="0" y="32">Experience</tspan>
                            </text>
                            <text id="Live-activities-with" font-family="Lato-Regular, Lato" font-size="16" font-weight="normal" line-spacing="28">
                                <tspan x="0" y="79">Live activities with top instructors </tspan>
                                <tspan x="0" y="107">in yoga, meditation, music, </tspan>
                                <tspan x="0" y="135">healthy cooking and more</tspan>
                            </text>
                        </g>
                    </g>
                    <g id="Group-9" transform="translate(942.000000, 430.000000)" fill="#000000">
                        <g id="Group-5">
                            <text id="Give-love" font-family="Lato-Bold, Lato" font-size="32" font-weight="bold">
                                <tspan x="0" y="32">Give love</tspan>
                            </text>
                            <text id="Share-love-with-all" font-family="Lato-Regular, Lato" font-size="16" font-weight="normal" line-spacing="28">
                                <tspan x="0" y="79">Share love with all those who help </tspan>
                                <tspan x="0" y="107">us live healthier happier longer </tspan>
                                <tspan x="0" y="135">lives :) </tspan>
                            </text>
                        </g>
                    </g>
                    <g id="Group-12" transform="translate(938.000000, 123.000000)" fill="#000000">
                        <g id="Group-4">
                            <text id="Get-help" font-family="Lato-Bold, Lato" font-size="32" font-weight="bold">
                                <tspan x="0" y="32">Get help</tspan>
                            </text>
                            <text id="Free-virtual-access" font-family="Lato-Regular, Lato" font-size="16" font-weight="normal" line-spacing="28">
                                <tspan x="0" y="79">Free virtual access to leading health </tspan>
                                <tspan x="0" y="107">and wellness experts and services: </tspan>
                                <tspan x="0" y="135">doctors, nurses, mental health </tspan>
                                <tspan x="0" y="163">specialists, digital pharmacies, online </tspan>
                                <tspan x="0" y="191">testing, and much more... </tspan>
                            </text>
                        </g>
                    </g>
                    <polyline id="Path-3" stroke="#2FCA7C" points="898 143 614 143 614 210"></polyline>
                    <polyline id="Path-4" stroke="#2FCA7C" points="111 24 307 24 307 56 523 56"></polyline>
                    <polyline id="Path-5" stroke="#2FCA7C" points="199 274 317 274 317 373 395 373"></polyline>
                    <polyline id="Path-6" stroke="#2FCA7C" points="218 526 317 526 317 614 531 614"></polyline>
                    <circle id="Oval" fill="#31C982" cx="111" cy="24" r="9"></circle>
                    <circle id="Oval" fill="#31C982" cx="199" cy="274" r="9"></circle>
                    <circle id="Oval" fill="#31C982" cx="222" cy="526" r="9"></circle>
                    <circle id="Oval" fill="#31C982" cx="531" cy="614" r="9"></circle>
                    <circle id="Oval" fill="#31C982" cx="911" cy="452" r="9"></circle>
                    <circle id="Oval" fill="#31C982" cx="902" cy="143" r="9"></circle>
                    <circle id="Oval" fill="#31C982" cx="614" cy="211" r="9"></circle>
                    <circle id="Oval" fill="#31C982" cx="525" cy="56" r="9"></circle>
                </g>
            </g>
        </g>
    </g>
</svg>